<svg width="18" height="18" viewBox="0 0 15 15" fill="none" xmlns="http://www.w3.org/2000/svg">
<path d="M12.2431 9.75H8.9931V11.375H12.2431V13L14.6806 10.5625L12.2431 8.125V9.75ZM6.5556 0C4.7681 0 3.3056 1.4625 3.3056 3.25C3.3056 5.0375 4.7681 6.5 6.5556 6.5C8.3431 6.5 9.8056 5.0375 9.8056 3.25C9.8056 1.4625 8.3431 0 6.5556 0ZM6.5556 8.125C2.9806 8.125 0.055603 9.5875 0.055603 11.375V13H7.77435C7.5306 12.35 7.3681 11.7 7.3681 10.9688C7.3681 9.99375 7.61185 9.1 8.09935 8.20625C7.61185 8.20625 7.12435 8.125 6.5556 8.125Z" fill="#ABB5BE"/>
</svg>
