<svg width="26" height="26" viewBox="0 0 26 26" fill="none" xmlns="http://www.w3.org/2000/svg">
<g clip-path="url(#clip0_1340_6691)">
<path d="M13.0125 2.4726C12.849 2.47169 12.6868 2.4887 12.5355 2.52263C12.3841 2.55657 12.2467 2.60673 12.1311 2.6702L0.359066 9.1299C0.244923 9.19251 0.154375 9.26684 0.092598 9.34866C0.0308205 9.43048 -0.000976562 9.51818 -0.000976562 9.60674C-0.000976562 9.6953 0.0308205 9.783 0.092598 9.86482C0.154375 9.94663 0.244923 10.021 0.359066 10.0836L12.1308 16.5438C12.2449 16.6064 12.3804 16.6561 12.5295 16.69C12.6786 16.7239 12.8384 16.7414 12.9997 16.7414C13.1611 16.7414 13.3209 16.7239 13.47 16.69C13.6191 16.6561 13.7546 16.6064 13.8687 16.5438L25.6402 10.0838C25.7543 10.0212 25.8449 9.94689 25.9066 9.86508C25.9684 9.78326 26.0002 9.69556 26.0002 9.607C26.0002 9.51844 25.9684 9.43074 25.9066 9.34892C25.8449 9.2671 25.7543 9.19277 25.6402 9.13016L13.8687 2.6702C13.6414 2.54538 13.334 2.47444 13.0125 2.4726ZM12.9997 4.1002L23.0347 9.607L12.9997 15.1133L2.96531 9.60648L12.9997 4.1002ZM1.22877 12.0463L0.359327 12.5232C0.245183 12.5858 0.154635 12.6601 0.092858 12.7419C0.0310805 12.8237 -0.000716562 12.9114 -0.000716562 13C-0.000716562 13.0886 0.0310805 13.1763 0.092858 13.2581C0.154635 13.3399 0.245183 13.4142 0.359327 13.4768L12.1308 19.9368C12.2449 19.9994 12.3804 20.0491 12.5295 20.083C12.6786 20.1169 12.8384 20.1344 12.9997 20.1344C13.1611 20.1344 13.3209 20.1169 13.47 20.083C13.6191 20.0491 13.7546 19.9994 13.8687 19.9368L25.6402 13.4768C25.7543 13.4142 25.8448 13.3399 25.9065 13.258C25.9682 13.1762 26 13.0885 25.9999 12.9999C25.9999 12.9114 25.9681 12.8237 25.9062 12.7419C25.8444 12.6601 25.7538 12.5857 25.6396 12.5232L24.7707 12.0463L23.0331 12.9995L23.0342 13L12.9997 18.5068L2.96479 13L2.96583 12.9995L1.22877 12.0463ZM1.22877 15.4393L0.359327 15.9164C0.245183 15.979 0.154635 16.0534 0.092858 16.1352C0.0310805 16.217 -0.000716562 16.3047 -0.000716562 16.3933C-0.000716562 16.4818 0.0310805 16.5695 0.092858 16.6513C0.154635 16.7332 0.245183 16.8075 0.359327 16.8701L12.1308 23.3298C12.2449 23.3924 12.3804 23.4421 12.5295 23.476C12.6786 23.5099 12.8384 23.5274 12.9997 23.5274C13.1611 23.5274 13.3209 23.5099 13.47 23.476C13.6191 23.4421 13.7546 23.3924 13.8687 23.3298L25.6402 16.8698C25.7543 16.8072 25.8448 16.7329 25.9065 16.651C25.9682 16.5692 26 16.4815 25.9999 16.3929C25.9999 16.3044 25.9681 16.2167 25.9062 16.1349C25.8444 16.0531 25.7538 15.9787 25.6396 15.9162L24.7707 15.4393L23.0331 16.3925L23.0342 16.393L12.9997 21.8998L2.96479 16.393L2.96583 16.3925L1.22877 15.4393Z" fill="white"/>
</g>
<defs>
<clipPath id="clip0_1340_6691">
<rect width="26" height="26" fill="white" transform="translate(-0.000244141)"/>
</clipPath>
</defs>
</svg>
