<svg width="16" height="16" viewBox="0 0 16 16" fill="none" xmlns="http://www.w3.org/2000/svg">
<path d="M6.53182 0C4.42782 0 2.7223 1.70552 2.7223 3.80952C2.7223 5.91352 4.42782 7.61905 6.53182 7.61905C8.63582 7.61905 10.3413 5.91352 10.3413 3.80952C10.3413 1.70552 8.63582 0 6.53182 0ZM2.05563 9.14286C1.6263 9.14286 1.21455 9.31338 0.910927 9.61693C0.607308 9.92048 0.436685 10.3322 0.436584 10.7615V11.0476C0.436584 12.4781 1.17639 13.5493 2.31087 14.24C3.42706 14.9192 4.92649 15.2381 6.53182 15.2381C6.9783 15.2381 7.41639 15.2133 7.84039 15.1634C6.99739 14.2502 6.53006 13.0524 6.53182 11.8095C6.53182 10.8278 6.81754 9.91238 7.31049 9.14286H2.05563ZM15.6747 11.8095C15.6747 14.1238 13.7985 16 11.4842 16C9.16992 16 7.29373 14.1238 7.29373 11.8095C7.29373 9.49524 9.16992 7.61905 11.4842 7.61905C13.7985 7.61905 15.6747 9.49524 15.6747 11.8095ZM10.2297 10.555C10.2991 10.4832 10.3375 10.387 10.3367 10.2871C10.3358 10.1872 10.2957 10.0917 10.2251 10.021C10.1545 9.95039 10.0589 9.91033 9.95902 9.90946C9.85914 9.90859 9.76291 9.94699 9.69106 10.0164L8.5482 11.1592C8.47679 11.2307 8.43667 11.3276 8.43667 11.4286C8.43667 11.5296 8.47679 11.6265 8.5482 11.6979L9.69106 12.8408C9.76291 12.9102 9.85914 12.9486 9.95902 12.9477C10.0589 12.9468 10.1545 12.9068 10.2251 12.8361C10.2957 12.7655 10.3358 12.6699 10.3367 12.5701C10.3375 12.4702 10.2991 12.3739 10.2297 12.3021L9.73716 11.8095H11.8652C12.2693 11.8095 12.6569 11.9701 12.9427 12.2558C13.2284 12.5416 13.389 12.9292 13.389 13.3333C13.389 13.4344 13.4291 13.5313 13.5005 13.6027C13.572 13.6742 13.6689 13.7143 13.7699 13.7143C13.871 13.7143 13.9678 13.6742 14.0393 13.6027C14.1107 13.5313 14.1509 13.4344 14.1509 13.3333C14.1509 12.7271 13.9101 12.1457 13.4814 11.7171C13.0527 11.2884 12.4714 11.0476 11.8652 11.0476H9.73716L10.2297 10.555Z" fill="#4B4848"/>
</svg>
