<svg width="21" height="21" viewBox="0 0 21 21" fill="none" xmlns="http://www.w3.org/2000/svg">
<path d="M12.6667 14.6667V12.1667H15.1667V10.5001L18.5 13.4167L15.1667 16.3334V14.6667H12.6667ZM14.3333 15.5001V18.0001H11.8333V19.6667L8.50001 16.7501L11.8333 13.8334V15.5001H14.3333ZM10.1667 7.16675C8.32501 7.16675 6.83334 8.66675 6.83334 10.5001C6.83334 12.0918 7.95834 13.4501 9.50834 13.7668L13.5 10.3834C13.4704 9.51953 13.1061 8.70099 12.4841 8.10075C11.8621 7.50052 11.0311 7.16559 10.1667 7.16675ZM10.1667 12.1667C9.25001 12.1667 8.50001 11.4251 8.50001 10.5001C8.50001 9.57508 9.25001 8.83342 10.1667 8.83342C11.0833 8.83342 11.8333 9.58342 11.8333 10.5001C11.8333 11.4167 11.0917 12.1667 10.1667 12.1667ZM18.2167 7.77508L16.55 4.89175C16.45 4.70842 16.2333 4.63342 16.0417 4.70842L13.9667 5.54175C13.5417 5.20008 13.0833 4.92508 12.5583 4.70842L12.25 2.51675C12.2331 2.4186 12.182 2.32961 12.1057 2.26554C12.0294 2.20148 11.9329 2.16648 11.8333 2.16675H8.50001C8.29168 2.16675 8.11668 2.31675 8.08334 2.51675L7.77501 4.72508C7.25001 4.94175 6.80001 5.21675 6.36668 5.55842L4.33334 4.70842C4.14168 4.63342 3.91668 4.70842 3.82501 4.89175L2.15834 7.77508C2.05001 7.95008 2.09168 8.18342 2.25001 8.30842L3.97501 9.66675L3.91668 10.5001L3.97501 11.3334L2.21668 12.6918C2.05001 12.8168 2.00834 13.0501 2.11668 13.2251L3.78334 16.1084C3.87501 16.3334 4.11668 16.4251 4.33334 16.3334L6.41668 15.5001C6.61668 15.6584 6.83334 15.8084 7.05001 15.9418L8.42501 14.7751C7.78334 14.5001 7.21668 14.0918 6.75834 13.5668L4.75001 14.4001L4.10834 13.3168L5.83334 12.0001C5.50001 11.0279 5.50001 9.97231 5.83334 9.00008L4.07501 7.70842L4.70001 6.62508L6.70834 7.45842C7.35834 6.70842 8.23334 6.18342 9.20834 5.97508L9.54168 3.83342H10.7917L11.1 6.01675C12.075 6.21675 12.95 6.75008 13.6 7.49175L15.6083 6.65842L16.2333 7.74175L14.5 9.00008C14.575 9.21675 14.6333 9.44175 14.6667 9.66675H16.3333L18.0833 8.30842C18.1695 8.2534 18.2314 8.16747 18.2562 8.06829C18.2809 7.9691 18.2668 7.86418 18.2167 7.77508ZM10.1667 7.16675C8.32501 7.16675 6.83334 8.66675 6.83334 10.5001C6.83334 12.0918 7.95834 13.4501 9.50834 13.7668L13.5 10.3834C13.4704 9.51953 13.1061 8.70099 12.4841 8.10075C11.8621 7.50052 11.0311 7.16559 10.1667 7.16675ZM10.1667 12.1667C9.25001 12.1667 8.50001 11.4251 8.50001 10.5001C8.50001 9.57508 9.25001 8.83342 10.1667 8.83342C11.0833 8.83342 11.8333 9.58342 11.8333 10.5001C11.8333 11.4167 11.0917 12.1667 10.1667 12.1667ZM10.1667 7.16675C8.32501 7.16675 6.83334 8.66675 6.83334 10.5001C6.83334 12.0918 7.95834 13.4501 9.50834 13.7668L13.5 10.3834C13.4704 9.51953 13.1061 8.70099 12.4841 8.10075C11.8621 7.50052 11.0311 7.16559 10.1667 7.16675ZM10.1667 12.1667C9.25001 12.1667 8.50001 11.4251 8.50001 10.5001C8.50001 9.57508 9.25001 8.83342 10.1667 8.83342C11.0833 8.83342 11.8333 9.58342 11.8333 10.5001C11.8333 11.4167 11.0917 12.1667 10.1667 12.1667Z" fill="#1C5EAB"/>
</svg>
