<svg width="20" height="20" viewBox="0 0 20 20" fill="none" xmlns="http://www.w3.org/2000/svg">
<path fill-rule="evenodd" clip-rule="evenodd" d="M9.30978 3.80083L6.45144 6.65667L5.50644 5.72333L7.23144 3.99H3.23144C2.9688 3.99 2.70873 4.04173 2.46608 4.14224C2.22343 4.24275 2.00295 4.39007 1.81723 4.57579C1.63151 4.7615 1.4842 4.98198 1.38369 5.22463C1.28318 5.46728 1.23144 5.72736 1.23144 5.99C1.23144 6.25264 1.28318 6.51272 1.38369 6.75537C1.4842 6.99802 1.63151 7.2185 1.81723 7.40421C2.00295 7.58993 2.22343 7.73725 2.46608 7.83776C2.70873 7.93827 2.9688 7.99 3.23144 7.99H3.97311V9.32333H3.23978C2.38405 9.28271 1.57682 8.91418 0.985586 8.29421C0.394353 7.67424 0.0645142 6.85044 0.0645142 5.99375C0.0645142 5.13706 0.394353 4.31326 0.985586 3.69329C1.57682 3.07332 2.38405 2.70479 3.23978 2.66417H7.23978L5.50561 0.941667L6.45144 0L9.30978 2.86V3.80167V3.80083ZM13.9056 20H5.90561L5.23894 19.3333V8.67667L5.90561 8.01H13.9056L14.5723 8.67667V19.3333L13.9056 20ZM6.57228 18.6667H13.2389V9.34333H6.57228V18.6667ZM11.2389 1.335H19.2389L19.9056 2.00167V12.6567L19.2389 13.3233H15.9056V11.99H18.5723V2.66667H11.9056V6.65583H10.5723V2.00083L11.2389 1.33417V1.335ZM11.9056 10.6567H7.90561V11.99H11.9056V10.6567V10.6567ZM7.90561 13.3233H11.9056V14.6567H7.90561V13.3233V13.3233ZM11.9056 15.99H7.90561V17.3233H11.9056V15.99ZM13.2389 3.99H17.2389V5.32333H13.2389V3.99V3.99ZM17.2389 9.32333H15.9056V10.6567H17.2389V9.32333ZM14.4573 6.67667V6.65667H17.2389V7.99H15.7706L14.4573 6.67667Z" fill="#ABB5BE"/>
</svg>
