<svg width="21" height="21" viewBox="0 0 21 21" fill="none" xmlns="http://www.w3.org/2000/svg">
<path fill-rule="evenodd" clip-rule="evenodd" d="M9.75417 4.30083L6.89584 7.15667L5.95084 6.22333L7.67584 4.49H3.67584C3.4132 4.49 3.15313 4.54173 2.91047 4.64224C2.66782 4.74275 2.44735 4.89007 2.26163 5.07579C2.07591 5.2615 1.92859 5.48198 1.82808 5.72463C1.72757 5.96728 1.67584 6.22736 1.67584 6.49C1.67584 6.75264 1.72757 7.01272 1.82808 7.25537C1.92859 7.49802 2.07591 7.7185 2.26163 7.90421C2.44735 8.08993 2.66782 8.23725 2.91047 8.33776C3.15313 8.43827 3.4132 8.49 3.67584 8.49H4.41751V9.82333H3.68418C2.82845 9.78271 2.02122 9.41418 1.42998 8.79421C0.83875 8.17424 0.508911 7.35044 0.508911 6.49375C0.508911 5.63706 0.83875 4.81326 1.42998 4.19329C2.02122 3.57332 2.82845 3.20479 3.68418 3.16417H7.68418L5.95001 1.44167L6.89584 0.5L9.75417 3.36V4.30167V4.30083ZM14.35 20.5H6.35001L5.68334 19.8333V9.17667L6.35001 8.51H14.35L15.0167 9.17667V19.8333L14.35 20.5ZM7.01668 19.1667H13.6833V9.84333H7.01668V19.1667ZM11.6833 1.835H19.6833L20.35 2.50167V13.1567L19.6833 13.8233H16.35V12.49H19.0167V3.16667H12.35V7.15583H11.0167V2.50083L11.6833 1.83417V1.835ZM12.35 11.1567H8.35001V12.49H12.35V11.1567ZM8.35001 13.8233H12.35V15.1567H8.35001V13.8233ZM12.35 16.49H8.35001V17.8233H12.35V16.49ZM13.6833 4.49H17.6833V5.82333H13.6833V4.49ZM17.6833 9.82333H16.35V11.1567H17.6833V9.82333ZM14.9017 7.17667V7.15667H17.6833V8.49H16.215L14.9017 7.17667Z" fill="black"/>
</svg>
