<svg id="Calque_1" data-name="Calque 1" xmlns="http://www.w3.org/2000/svg" viewBox="0 0 288 123.81"><defs><style>.cls-1{fill:#fefefe;}.cls-2{fill:#82858a;}.cls-3{fill:#1c5eab;}.cls-4{fill:#759dcc;}</style></defs><path class="cls-1" d="M280.07,66.46c0,9.23-.05,18.46.05,27.69,0,1.61-.32,1.92-1.93,1.92Q171.48,96,64.76,96H29.15c-.06-1,.86-1,1.45-1.19,7.13-2.25,12.85-6.76,18.52-11.35a41.93,41.93,0,0,0,6.3-5.91,6.2,6.2,0,0,0-5.72,1.31C46,82.11,42,85.05,37.27,86.78a14.51,14.51,0,0,1-6.71.85c-3.62-.42-5.62-2.6-5.77-6.22a7.4,7.4,0,0,1,0-1.63c.53-2.64-.59-4.19-3-5.27-1.22-.56-1.75-.74-2.14.72-.78,2.94-1.78,5.83-2.33,8.83-.92,5,.57,8.23,5,10.72.51.28,1.28.37,1.14,1.25-2.12,0-4.24-.07-6.36,0-1,0-1.22-.2-1.21-1.21.06-7,0-14.07,0-21.11,0-17.52,0-35,0-52.56,0-1.4.28-1.68,1.69-1.68q130.41.06,260.82,0c1.41,0,1.7.28,1.69,1.68-.07,11.5,0,23,0,34.49-1.31-.19-1.1-1.36-1.28-2.16-1.41-6.2-5.67-6.78-10.61-5.84-2.27.44-3.57,2.28-4.17,4.4a30.52,30.52,0,0,0-.18,16.87,7.35,7.35,0,0,0,6.42,5.72c4.05.57,6.66-1,8-4.82a14.08,14.08,0,0,1,1.13-3.31A.48.48,0,0,1,280.07,66.46Z"/><path class="cls-2" d="M23.49,96c-6.64-3.28-8.18-6.61-6.35-14,.79-3.16,1.73-6.29,2.65-9.64,1.72,1.27,3.17,2.48,5,3,.81.22.79.73.71,1.44a28.58,28.58,0,0,0-.21,4.43c.19,3.8,2.33,5.75,6.19,5.89,3.43.13,6.45-1.1,9.37-2.65a28.06,28.06,0,0,0,7.8-5.59c2.41-2.67,5.17-2.17,8.66-2.07C48.74,85.06,40.27,92.44,29.15,96Z"/><path class="cls-3" d="M279.67,66.53c-.59,5.18-2.36,7.78-5.88,8.62-4.84,1.16-8.93-.91-10.4-5.62a30,30,0,0,1,0-17.76c1.11-3.74,3.45-5.12,7.7-5.12s6.43,1.46,7.81,5.07c.49,1.3.36,2.75,1.13,4v8.45C279.51,64.85,280.1,65.78,279.67,66.53Z"/><path class="cls-4" d="M279.67,66.53c-.09-.84-.31-1.71.4-2.41v2.34A.92.92,0,0,1,279.67,66.53Z"/><path class="cls-3" d="M138.1,74.53c.69-1.42,1.24-2.36,1.63-3.36a2.15,2.15,0,0,1,2.31-1.5,16.74,16.74,0,0,0,6.87-1.41,7.55,7.55,0,0,0,1.53-13.19c-4-2.92-8.65-3-13.33-2.77-1.28.05-.89,1.08-.89,1.76,0,6.1-.08,12.2,0,18.3,0,1.72-.45,2-2.18,2.27-5.89.84-10.09-1.12-13.38-6.12-2.29-3.49-5.38-6.45-8.51-10.1,0,5.14-.09,9.71,0,14.27,0,1.79-.48,2.34-2.24,2.19a44.54,44.54,0,0,0-5.42,0c-1,0-1.37-.34-1.37-1.35q0-12.44-.12-24.87c0-1.15.4-1.56,1.5-1.42a1.85,1.85,0,0,0,.47,0c5-.79,8.79.65,11.69,5.1,2.15,3.32,5.1,6.13,7.73,9.14.59.67,1,1.56,2.21,2,0-4.79.09-9.44,0-14.09-.06-1.8.5-2.2,2.23-2.18,5.82,0,11.63-.25,17.45-.14a18.33,18.33,0,0,1,15.11,7.78c0-2.23.06-4,0-5.8-.07-1.46.33-2.08,2-2.06q10.14.12,20.28,0c1.73,0,1.67.51,1.22,1.9-.63,2-1.51,3-3.8,2.71-2.49-.27-5,0-7.54-.08-1.2,0-1.71.31-1.65,1.57q.12,2.58,0,5.16c-.06,1.26.48,1.61,1.67,1.59,2.9-.06,5.8,0,9.17,0-1.25,2.09-2.33,3.86-3.37,5.65-.4.69-1,.58-1.65.58-1.26,0-2.52,0-3.77,0s-2.11-.16-2.09,1.59.67,1.92,2.09,1.89c3.46-.08,6.93.1,10.38-.07,2.25-.1,1.88,1.29,1.84,2.57s.56,2.66-1.76,2.62c-6.92-.13-13.84-.08-20.75,0-1.32,0-1.84-.36-1.77-1.72a35.6,35.6,0,0,0-.16-5.47C155.94,76.62,146.83,74.14,138.1,74.53Z"/><path class="cls-3" d="M73.19,52.69c-1,1.89-1.86,3.45-2.62,5.05a2.31,2.31,0,0,1-2.52,1.59c-1.72-.14-3.46-.06-5.19,0-1.11,0-1.44-.3-.85-1.36,1.8-3.29,3.59-6.59,5.33-9.91a1.84,1.84,0,0,1,2-1c2,0,4.1.14,6.13,0a3.35,3.35,0,0,1,3.75,2.25C82.71,56.7,86.42,64,90.11,71.45c.82-.55.47-1.31.47-1.9,0-6.88.07-13.76,0-20.64,0-1.62.42-2.23,2.1-2.11a48.58,48.58,0,0,0,5.66,0c1.27-.07,1.59.43,1.58,1.62q-.06,12.56,0,25.1c0,1.11-.34,1.49-1.47,1.48C93.57,75,88.7,75,83.83,75a2,2,0,0,1-2.1-1.42c-.88-2.17-1.93-4.27-2.81-6.44a2,2,0,0,0-2.12-1.38c-7.63,0-15.25.06-22.87,0-1.55,0-1.9.58-1.78,1.93.08.93-.11,1.89,0,2.81.37,2.29-.84,3.34-2.84,3.76-7.62,1.62-15.27,2-22.82-.26-5-1.53-8.48-4.73-9.17-10.17-.76-6,1.37-10.74,6.65-13.9,3.9-2.34,8.26-2.89,12.69-3a65.59,65.59,0,0,1,10.55.88c1.58.21,1.74.73,1.13,2.22-.93,2.25-1.75,3.36-4.64,2.48A17.4,17.4,0,0,0,32,53.26,10.28,10.28,0,0,0,27,57.07,6.8,6.8,0,0,0,29.4,67.15c3.87,2.07,8.12,2.19,12.4,2,1.3-.07,1.12-1,1.18-1.86.07-1-.42-1.33-1.39-1.3-1.65,0-3.3,0-5,0-1.48.07-1.51-.4-1-1.61,1.74-3.85,1.7-3.88,6-3.88,10.76,0,21.53,0,32.3,0,1.84,0,2.42-.28,1.51-2.13S74,54.84,73.19,52.69Z"/><path class="cls-3" d="M236.68,61.14a29.73,29.73,0,0,1-1,8.46c-1,3.69-3.11,5.47-6.54,5.75-4.2.34-7.26-1.07-8.64-4.6a28.1,28.1,0,0,1-.1-19.91c1.15-3.32,4-4.22,7.4-4.22s6,1.08,7.38,4.31S236.71,57.43,236.68,61.14Z"/><path class="cls-3" d="M258.17,60.84c-.19,3.38-.21,6.43-1.2,9.36s-2.88,4.79-6.05,5.11c-3.4.35-6.41-.37-8.4-3.46a11.76,11.76,0,0,1-1.73-4.8c-.69-5-.87-9.95.56-14.84,1.16-4,3.38-5.51,7.61-5.56,4.62,0,6.77,1.43,8.15,5.52C258.1,55.11,258,58.16,258.17,60.84Z"/><path class="cls-2" d="M38.27,44.48c9.72-8.57,19-17,31.59-20.42a15.43,15.43,0,0,1,9.27.09,5.18,5.18,0,0,1,3.8,4.6c.64,5.84-1.53,11-3.86,16.19-.32.7-4.35,1.24-4.8.69s.1-1,.33-1.46c1.18-2.28,2.82-4.35,3.27-7a16.35,16.35,0,0,0,.33-2.78c0-4.61-3.26-7.24-7.77-6.3a32.89,32.89,0,0,0-10.08,4.41,95,95,0,0,0-14.29,10.3C43.84,44.82,41.56,45.35,38.27,44.48Z"/><path class="cls-3" d="M205.61,69.44c3,0,5.34.06,7.68,0,1.28,0,1.92.3,1.77,1.69a13.18,13.18,0,0,0,0,2.35c0,1-.27,1.4-1.33,1.39-4.72,0-9.43,0-14.15,0-1,0-1.42-.28-1.45-1.32-.05-2,0-3.68,1.95-5.11a24.26,24.26,0,0,0,7.54-8.88c1-2.12,2-4.42.27-6.62-1.1-1.42-4.49-1.37-7.12-.09-.49.23-.94.52-1.79,1,0-1.88,0-3.54,0-5.19,0-.93.75-1.12,1.37-1.37a14.17,14.17,0,0,1,8.55-.74c3,.66,4.64,2.71,5.18,5.94a14.14,14.14,0,0,1-2.79,10.82A43.94,43.94,0,0,1,205.61,69.44Z"/><path class="cls-1" d="M267.58,61.74c.18-3-.06-5.45.61-7.81.39-1.37,1-2.43,2.65-2.55a2.79,2.79,0,0,1,3,2.39,31.27,31.27,0,0,1,.22,14.11,2.9,2.9,0,0,1-3.16,2.53A2.85,2.85,0,0,1,268,67.65C267.7,65.49,267.68,63.3,267.58,61.74Z"/><path class="cls-1" d="M224.19,61.91c.16-3.13-.08-5.64.63-8.08.4-1.37,1.1-2.38,2.72-2.45a2.71,2.71,0,0,1,2.88,2.26A30.71,30.71,0,0,1,230.66,68a3.09,3.09,0,0,1-6.1-.42C224.29,65.47,224.28,63.36,224.19,61.91Z"/><path class="cls-1" d="M246.12,61.18a28.16,28.16,0,0,1,.51-7c.33-1.4.9-2.68,2.67-2.81s2.76,1,3.14,2.55a31.91,31.91,0,0,1,.21,13.89,2.89,2.89,0,0,1-3.14,2.57c-1.78-.05-2.62-1.06-3-2.71A33.07,33.07,0,0,1,246.12,61.18Z"/></svg>